<mxfile host="Electron" agent="Mozilla/5.0 (Windows NT 10.0; Win64; x64) AppleWebKit/537.36 (KHTML, like Gecko) draw.io/27.0.9 Chrome/134.0.6998.205 Electron/35.4.0 Safari/537.36" version="27.0.9">
  <diagram name="Page-1" id="msCKZqLqGkfgK5TMLTVA">
    <mxGraphModel dx="1500" dy="894" grid="1" gridSize="10" guides="1" tooltips="1" connect="1" arrows="1" fold="1" page="1" pageScale="1" pageWidth="850" pageHeight="1100" math="0" shadow="0">
      <root>
        <mxCell id="0" />
        <mxCell id="1" parent="0" />
        <mxCell id="spmLyidVeu9AioyJ3ZP6-1" value="" style="rounded=0;whiteSpace=wrap;html=1;dashed=1;strokeColor=#E1D5E7;" vertex="1" parent="1">
          <mxGeometry x="40" y="110" width="190" height="590" as="geometry" />
        </mxCell>
        <mxCell id="spmLyidVeu9AioyJ3ZP6-2" value="&lt;font style=&quot;font-size: 24px;&quot;&gt;Sources&lt;/font&gt;" style="rounded=0;whiteSpace=wrap;html=1;strokeColor=none;" vertex="1" parent="1">
          <mxGeometry x="76.77" y="90" width="120" height="40" as="geometry" />
        </mxCell>
        <mxCell id="spmLyidVeu9AioyJ3ZP6-3" value="" style="rounded=0;whiteSpace=wrap;html=1;dashed=1;strokeColor=#E1D5E7;" vertex="1" parent="1">
          <mxGeometry x="290" y="110" width="810" height="590" as="geometry" />
        </mxCell>
        <mxCell id="spmLyidVeu9AioyJ3ZP6-4" value="&lt;div&gt;&lt;span style=&quot;background-color: transparent; color: light-dark(rgb(0, 0, 0), rgb(255, 255, 255)); font-size: 24px;&quot;&gt;Data Warehouse&lt;/span&gt;&lt;/div&gt;&lt;div&gt;&lt;br&gt;&lt;/div&gt;" style="rounded=0;whiteSpace=wrap;html=1;strokeColor=none;" vertex="1" parent="1">
          <mxGeometry x="597.5" y="100" width="195" height="20" as="geometry" />
        </mxCell>
        <mxCell id="spmLyidVeu9AioyJ3ZP6-5" value="" style="rounded=0;whiteSpace=wrap;html=1;dashed=1;strokeColor=#E1D5E7;" vertex="1" parent="1">
          <mxGeometry x="1160" y="110" width="210" height="590" as="geometry" />
        </mxCell>
        <mxCell id="spmLyidVeu9AioyJ3ZP6-6" value="&lt;font style=&quot;font-size: 24px;&quot;&gt;Consume&lt;/font&gt;" style="rounded=0;whiteSpace=wrap;html=1;strokeColor=none;" vertex="1" parent="1">
          <mxGeometry x="1205" y="90" width="120" height="40" as="geometry" />
        </mxCell>
        <mxCell id="spmLyidVeu9AioyJ3ZP6-7" value="&lt;font style=&quot;font-size: 24px;&quot;&gt;Bronze Layer&lt;/font&gt;" style="rounded=0;whiteSpace=wrap;html=1;fillColor=default;strokeColor=#FFB570;" vertex="1" parent="1">
          <mxGeometry x="340" y="130" width="190" height="30" as="geometry" />
        </mxCell>
        <mxCell id="spmLyidVeu9AioyJ3ZP6-8" value="" style="rounded=0;whiteSpace=wrap;html=1;fillColor=none;strokeColor=#FFB570;" vertex="1" parent="1">
          <mxGeometry x="340" y="170" width="190" height="500" as="geometry" />
        </mxCell>
        <mxCell id="spmLyidVeu9AioyJ3ZP6-9" value="&lt;font style=&quot;font-size: 24px;&quot;&gt;Silver Layer&lt;/font&gt;" style="rounded=0;whiteSpace=wrap;html=1;fillColor=none;strokeColor=#666666;gradientColor=#b3b3b3;" vertex="1" parent="1">
          <mxGeometry x="595" y="130" width="200" height="30" as="geometry" />
        </mxCell>
        <mxCell id="spmLyidVeu9AioyJ3ZP6-10" value="" style="rounded=0;whiteSpace=wrap;html=1;fillColor=none;strokeColor=#666666;gradientColor=#b3b3b3;" vertex="1" parent="1">
          <mxGeometry x="595" y="170" width="200" height="500" as="geometry" />
        </mxCell>
        <mxCell id="spmLyidVeu9AioyJ3ZP6-11" value="&lt;font style=&quot;font-size: 24px;&quot;&gt;Gold Layer&lt;/font&gt;" style="rounded=0;whiteSpace=wrap;html=1;fillColor=none;strokeColor=#d79b00;gradientColor=#ffa500;" vertex="1" parent="1">
          <mxGeometry x="860" y="130" width="190" height="30" as="geometry" />
        </mxCell>
        <mxCell id="spmLyidVeu9AioyJ3ZP6-12" value="" style="rounded=0;whiteSpace=wrap;html=1;fillColor=none;strokeColor=#d79b00;gradientColor=#ffa500;" vertex="1" parent="1">
          <mxGeometry x="860" y="170" width="190" height="500" as="geometry" />
        </mxCell>
        <mxCell id="sCFNNogYVKCEK7yUjIK_-1" value="&lt;font style=&quot;font-size: 20px;&quot;&gt;&lt;b&gt;CRM&lt;/b&gt;&lt;/font&gt;" style="image;aspect=fixed;html=1;points=[];align=center;fontSize=12;image=img/lib/azure2/general/Folder_Blank.svg;" vertex="1" parent="1">
          <mxGeometry x="96.77" y="236" width="69" height="56.00000000000001" as="geometry" />
        </mxCell>
        <mxCell id="sCFNNogYVKCEK7yUjIK_-2" value="" style="image;aspect=fixed;html=1;points=[];align=center;fontSize=12;image=img/lib/azure2/general/File.svg;" vertex="1" parent="1">
          <mxGeometry x="150.77" y="259" width="32.46" height="40" as="geometry" />
        </mxCell>
        <mxCell id="sCFNNogYVKCEK7yUjIK_-9" value="&lt;font style=&quot;font-size: 20px;&quot;&gt;&lt;b&gt;ERP&lt;/b&gt;&lt;/font&gt;" style="image;aspect=fixed;html=1;points=[];align=center;fontSize=12;image=img/lib/azure2/general/Folder_Blank.svg;" vertex="1" parent="1">
          <mxGeometry x="96.77" y="366" width="69" height="56.00000000000001" as="geometry" />
        </mxCell>
        <mxCell id="sCFNNogYVKCEK7yUjIK_-10" value="" style="image;aspect=fixed;html=1;points=[];align=center;fontSize=12;image=img/lib/azure2/general/File.svg;" vertex="1" parent="1">
          <mxGeometry x="150.77" y="386" width="32.46" height="40" as="geometry" />
        </mxCell>
        <mxCell id="sCFNNogYVKCEK7yUjIK_-12" value="" style="endArrow=none;html=1;rounded=0;" edge="1" parent="1">
          <mxGeometry width="50" height="50" relative="1" as="geometry">
            <mxPoint x="90" y="476" as="sourcePoint" />
            <mxPoint x="190" y="476" as="targetPoint" />
          </mxGeometry>
        </mxCell>
        <mxCell id="sCFNNogYVKCEK7yUjIK_-13" value="&lt;font style=&quot;font-size: 14px;&quot;&gt;&lt;b style=&quot;&quot;&gt;Object Type&lt;/b&gt;: CSV Files&lt;/font&gt;&lt;div&gt;&lt;font style=&quot;font-size: 14px;&quot;&gt;&lt;b style=&quot;&quot;&gt;Interface&lt;/b&gt;: Files in Folders&lt;/font&gt;&lt;/div&gt;" style="text;html=1;align=center;verticalAlign=middle;whiteSpace=wrap;rounded=0;" vertex="1" parent="1">
          <mxGeometry x="61.57" y="486" width="168.43" height="50" as="geometry" />
        </mxCell>
        <mxCell id="sCFNNogYVKCEK7yUjIK_-15" value="" style="html=1;verticalLabelPosition=bottom;align=center;labelBackgroundColor=#ffffff;verticalAlign=top;strokeWidth=2;strokeColor=#FFB570;shadow=0;dashed=0;shape=mxgraph.ios7.icons.data;fillColor=none;" vertex="1" parent="1">
          <mxGeometry x="406.5" y="217" width="57" height="66" as="geometry" />
        </mxCell>
        <mxCell id="sCFNNogYVKCEK7yUjIK_-16" value="" style="html=1;verticalLabelPosition=bottom;align=center;labelBackgroundColor=#ffffff;verticalAlign=top;strokeWidth=2;strokeColor=#666666;shadow=0;dashed=0;shape=mxgraph.ios7.icons.data;fillColor=none;gradientColor=#b3b3b3;" vertex="1" parent="1">
          <mxGeometry x="660.88" y="215" width="57" height="66" as="geometry" />
        </mxCell>
        <mxCell id="sCFNNogYVKCEK7yUjIK_-17" value="" style="html=1;verticalLabelPosition=bottom;align=center;labelBackgroundColor=#ffffff;verticalAlign=top;strokeWidth=2;strokeColor=#d79b00;shadow=0;dashed=0;shape=mxgraph.ios7.icons.data;fillColor=none;gradientColor=#ffa500;" vertex="1" parent="1">
          <mxGeometry x="926.5" y="215" width="57" height="66" as="geometry" />
        </mxCell>
        <mxCell id="sCFNNogYVKCEK7yUjIK_-18" value="" style="shape=flexArrow;endArrow=classic;html=1;rounded=0;strokeColor=#007FFF;fillColor=#007FFF;" edge="1" parent="1">
          <mxGeometry width="50" height="50" relative="1" as="geometry">
            <mxPoint x="230" y="315" as="sourcePoint" />
            <mxPoint x="290" y="314.5" as="targetPoint" />
          </mxGeometry>
        </mxCell>
        <mxCell id="sCFNNogYVKCEK7yUjIK_-19" value="" style="shape=flexArrow;endArrow=classic;html=1;rounded=0;strokeColor=#007FFF;fillColor=#007FFF;" edge="1" parent="1">
          <mxGeometry width="50" height="50" relative="1" as="geometry">
            <mxPoint x="535" y="315" as="sourcePoint" />
            <mxPoint x="595" y="314.5" as="targetPoint" />
          </mxGeometry>
        </mxCell>
        <mxCell id="sCFNNogYVKCEK7yUjIK_-22" value="" style="shape=flexArrow;endArrow=classic;html=1;rounded=0;strokeColor=#007FFF;fillColor=#007FFF;" edge="1" parent="1">
          <mxGeometry width="50" height="50" relative="1" as="geometry">
            <mxPoint x="800" y="315" as="sourcePoint" />
            <mxPoint x="860" y="314.5" as="targetPoint" />
          </mxGeometry>
        </mxCell>
        <mxCell id="sCFNNogYVKCEK7yUjIK_-23" value="" style="shape=flexArrow;endArrow=classic;html=1;rounded=0;strokeColor=#007FFF;fillColor=#007FFF;" edge="1" parent="1">
          <mxGeometry width="50" height="50" relative="1" as="geometry">
            <mxPoint x="1100" y="315" as="sourcePoint" />
            <mxPoint x="1160" y="314.5" as="targetPoint" />
          </mxGeometry>
        </mxCell>
        <mxCell id="sCFNNogYVKCEK7yUjIK_-26" value="&lt;font style=&quot;font-size: 16px;&quot;&gt;Raw Data&lt;/font&gt;" style="text;html=1;align=center;verticalAlign=middle;whiteSpace=wrap;rounded=0;" vertex="1" parent="1">
          <mxGeometry x="371.25" y="290" width="127.5" height="30" as="geometry" />
        </mxCell>
        <mxCell id="sCFNNogYVKCEK7yUjIK_-27" value="&lt;font style=&quot;font-size: 16px;&quot;&gt;Cleaned, Standartized Data&lt;/font&gt;" style="text;html=1;align=center;verticalAlign=middle;whiteSpace=wrap;rounded=0;" vertex="1" parent="1">
          <mxGeometry x="625.63" y="290" width="138.75" height="30" as="geometry" />
        </mxCell>
        <mxCell id="sCFNNogYVKCEK7yUjIK_-28" value="&lt;font style=&quot;font-size: 16px;&quot;&gt;Business-Ready Data&lt;/font&gt;" style="text;html=1;align=center;verticalAlign=middle;whiteSpace=wrap;rounded=0;" vertex="1" parent="1">
          <mxGeometry x="891.25" y="288" width="127.5" height="30" as="geometry" />
        </mxCell>
        <mxCell id="sCFNNogYVKCEK7yUjIK_-29" value="&lt;font style=&quot;font-size: 14px;&quot;&gt;&lt;b style=&quot;&quot;&gt;Object Type&lt;/b&gt;: Tables&lt;/font&gt;&lt;div&gt;&lt;div style=&quot;&quot;&gt;&lt;b style=&quot;font-size: 14px; background-color: transparent; color: light-dark(rgb(0, 0, 0), rgb(255, 255, 255));&quot;&gt;Load:&lt;/b&gt;&lt;/div&gt;&lt;/div&gt;&lt;div style=&quot;&quot;&gt;&lt;ul&gt;&lt;li&gt;&lt;span style=&quot;font-size: 14px; background-color: transparent; color: light-dark(rgb(0, 0, 0), rgb(255, 255, 255));&quot;&gt;Batch Processing&lt;/span&gt;&lt;/li&gt;&lt;li&gt;&lt;span style=&quot;font-size: 14px; background-color: transparent; color: light-dark(rgb(0, 0, 0), rgb(255, 255, 255));&quot;&gt;Full Load (Trunc &amp;amp; Insert)&lt;/span&gt;&lt;/li&gt;&lt;/ul&gt;&lt;span style=&quot;font-size: 14px;&quot;&gt;&lt;b&gt;No Transformation&lt;/b&gt;&lt;/span&gt;&lt;/div&gt;&lt;div style=&quot;&quot;&gt;&lt;span style=&quot;font-size: 14px;&quot;&gt;&lt;b&gt;&lt;br&gt;&lt;/b&gt;&lt;/span&gt;&lt;/div&gt;&lt;div style=&quot;&quot;&gt;&lt;span style=&quot;font-size: 14px;&quot;&gt;&lt;b&gt;Data Model - None(as is)&lt;/b&gt;&lt;/span&gt;&lt;/div&gt;" style="text;html=1;align=left;verticalAlign=middle;whiteSpace=wrap;rounded=0;" vertex="1" parent="1">
          <mxGeometry x="350.79" y="356" width="168.43" height="180" as="geometry" />
        </mxCell>
        <mxCell id="sCFNNogYVKCEK7yUjIK_-30" value="" style="endArrow=none;html=1;rounded=0;strokeColor=#FFB570;" edge="1" parent="1">
          <mxGeometry width="50" height="50" relative="1" as="geometry">
            <mxPoint x="385" y="339.5" as="sourcePoint" />
            <mxPoint x="485" y="339.5" as="targetPoint" />
          </mxGeometry>
        </mxCell>
        <mxCell id="sCFNNogYVKCEK7yUjIK_-33" value="" style="endArrow=none;html=1;rounded=0;strokeColor=#666666;" edge="1" parent="1">
          <mxGeometry width="50" height="50" relative="1" as="geometry">
            <mxPoint x="639.38" y="339.5" as="sourcePoint" />
            <mxPoint x="739.38" y="339.5" as="targetPoint" />
          </mxGeometry>
        </mxCell>
        <mxCell id="sCFNNogYVKCEK7yUjIK_-34" value="" style="endArrow=none;html=1;rounded=0;strokeColor=#D79B00;" edge="1" parent="1">
          <mxGeometry width="50" height="50" relative="1" as="geometry">
            <mxPoint x="905" y="339.5" as="sourcePoint" />
            <mxPoint x="1005" y="339.5" as="targetPoint" />
          </mxGeometry>
        </mxCell>
        <mxCell id="sCFNNogYVKCEK7yUjIK_-35" value="&lt;font style=&quot;font-size: 14px;&quot;&gt;&lt;b style=&quot;&quot;&gt;Object Type&lt;/b&gt;: Tables&lt;/font&gt;&lt;div&gt;&lt;div style=&quot;&quot;&gt;&lt;b style=&quot;font-size: 14px; background-color: transparent; color: light-dark(rgb(0, 0, 0), rgb(255, 255, 255));&quot;&gt;Load:&lt;/b&gt;&lt;/div&gt;&lt;/div&gt;&lt;div style=&quot;&quot;&gt;&lt;ul&gt;&lt;li&gt;&lt;span style=&quot;font-size: 14px; background-color: transparent; color: light-dark(rgb(0, 0, 0), rgb(255, 255, 255));&quot;&gt;Batch Processing&lt;/span&gt;&lt;/li&gt;&lt;li&gt;&lt;span style=&quot;font-size: 14px; background-color: transparent; color: light-dark(rgb(0, 0, 0), rgb(255, 255, 255));&quot;&gt;Full Load (Trunc &amp;amp; Insert)&lt;/span&gt;&lt;/li&gt;&lt;/ul&gt;&lt;span style=&quot;font-size: 14px;&quot;&gt;&lt;b&gt;Transformation&lt;/b&gt;&lt;/span&gt;&lt;/div&gt;&lt;div style=&quot;&quot;&gt;&lt;ul&gt;&lt;li&gt;&lt;span style=&quot;font-size: 14px;&quot;&gt;Data Cleansing&lt;/span&gt;&lt;/li&gt;&lt;li&gt;&lt;span style=&quot;font-size: 14px;&quot;&gt;Data Standartization&lt;/span&gt;&lt;/li&gt;&lt;li&gt;&lt;span style=&quot;font-size: 14px;&quot;&gt;Data Normalization&lt;/span&gt;&lt;/li&gt;&lt;li&gt;&lt;span style=&quot;font-size: 14px;&quot;&gt;Derived Columns&lt;/span&gt;&lt;/li&gt;&lt;li&gt;&lt;span style=&quot;font-size: 14px;&quot;&gt;Data Enrichement&lt;/span&gt;&lt;/li&gt;&lt;/ul&gt;&lt;/div&gt;&lt;div style=&quot;&quot;&gt;&lt;span style=&quot;font-size: 14px;&quot;&gt;&lt;b&gt;Data Model - None(as is)&lt;/b&gt;&lt;/span&gt;&lt;/div&gt;" style="text;html=1;align=left;verticalAlign=middle;whiteSpace=wrap;rounded=0;" vertex="1" parent="1">
          <mxGeometry x="610.79" y="360" width="168.43" height="272" as="geometry" />
        </mxCell>
        <mxCell id="sCFNNogYVKCEK7yUjIK_-36" value="&lt;font style=&quot;font-size: 14px;&quot;&gt;&lt;b style=&quot;&quot;&gt;Object Type&lt;/b&gt;: Views&lt;/font&gt;&lt;div&gt;&lt;span style=&quot;font-size: 14px;&quot;&gt;&lt;br&gt;&lt;/span&gt;&lt;div&gt;&lt;div style=&quot;&quot;&gt;&lt;b style=&quot;font-size: 14px; background-color: transparent; color: light-dark(rgb(0, 0, 0), rgb(255, 255, 255));&quot;&gt;Load: &lt;/b&gt;&lt;span style=&quot;font-size: 14px; background-color: transparent; color: light-dark(rgb(0, 0, 0), rgb(255, 255, 255));&quot;&gt;No Load&lt;/span&gt;&lt;/div&gt;&lt;/div&gt;&lt;div style=&quot;&quot;&gt;&lt;span style=&quot;font-size: 14px;&quot;&gt;&lt;b&gt;Transformation&lt;/b&gt;&lt;/span&gt;&lt;/div&gt;&lt;div style=&quot;&quot;&gt;&lt;ul&gt;&lt;li&gt;&lt;span style=&quot;font-size: 14px;&quot;&gt;Data Integration&lt;/span&gt;&lt;/li&gt;&lt;li&gt;&lt;span style=&quot;font-size: 14px;&quot;&gt;Aggregation&lt;/span&gt;&lt;/li&gt;&lt;li&gt;&lt;span style=&quot;font-size: 14px;&quot;&gt;Business Logics&lt;/span&gt;&lt;/li&gt;&lt;/ul&gt;&lt;/div&gt;&lt;div style=&quot;&quot;&gt;&lt;span style=&quot;font-size: 14px;&quot;&gt;&lt;b&gt;Data Model:&lt;/b&gt;&lt;/span&gt;&lt;/div&gt;&lt;/div&gt;&lt;div style=&quot;&quot;&gt;&lt;ul&gt;&lt;li&gt;&lt;span style=&quot;font-size: 14px;&quot;&gt;Start Schema&lt;/span&gt;&lt;/li&gt;&lt;li&gt;&lt;span style=&quot;font-size: 14px;&quot;&gt;Flat Table&lt;/span&gt;&lt;/li&gt;&lt;li&gt;&lt;span style=&quot;font-size: 14px;&quot;&gt;Aggregated Table&lt;/span&gt;&lt;/li&gt;&lt;/ul&gt;&lt;/div&gt;" style="text;html=1;align=left;verticalAlign=middle;whiteSpace=wrap;rounded=0;" vertex="1" parent="1">
          <mxGeometry x="870.79" y="356" width="168.43" height="262" as="geometry" />
        </mxCell>
        <mxCell id="sCFNNogYVKCEK7yUjIK_-37" value="" style="image;aspect=fixed;html=1;points=[];align=center;fontSize=12;image=img/lib/azure2/analytics/Power_BI_Embedded.svg;" vertex="1" parent="1">
          <mxGeometry x="1210" y="179" width="38.25" height="51" as="geometry" />
        </mxCell>
        <mxCell id="sCFNNogYVKCEK7yUjIK_-38" value="" style="verticalLabelPosition=bottom;sketch=0;aspect=fixed;html=1;verticalAlign=top;strokeColor=none;align=center;outlineConnect=0;shape=mxgraph.citrix.reporting;" vertex="1" parent="1">
          <mxGeometry x="1260" y="182" width="45.46" height="51" as="geometry" />
        </mxCell>
        <mxCell id="sCFNNogYVKCEK7yUjIK_-39" value="&lt;font style=&quot;font-size: 16px;&quot;&gt;BI &amp;amp; Reporting&lt;/font&gt;" style="text;html=1;align=center;verticalAlign=middle;whiteSpace=wrap;rounded=0;" vertex="1" parent="1">
          <mxGeometry x="1195.62" y="250" width="138.75" height="30" as="geometry" />
        </mxCell>
        <mxCell id="sCFNNogYVKCEK7yUjIK_-40" value="" style="sketch=0;outlineConnect=0;fontColor=#232F3E;gradientColor=none;fillColor=#8C4FFF;strokeColor=none;dashed=0;verticalLabelPosition=bottom;verticalAlign=top;align=center;html=1;fontSize=12;fontStyle=0;aspect=fixed;pointerEvents=1;shape=mxgraph.aws4.redshift_query_editor_v20_light;" vertex="1" parent="1">
          <mxGeometry x="1236" y="356" width="58" height="58" as="geometry" />
        </mxCell>
        <mxCell id="sCFNNogYVKCEK7yUjIK_-41" value="&lt;font style=&quot;font-size: 16px;&quot;&gt;Ad-Hoc&amp;nbsp;&lt;/font&gt;&lt;div&gt;&lt;font style=&quot;font-size: 16px;&quot;&gt;SQL Queries&lt;/font&gt;&lt;/div&gt;" style="text;html=1;align=center;verticalAlign=middle;whiteSpace=wrap;rounded=0;" vertex="1" parent="1">
          <mxGeometry x="1195.62" y="430" width="138.75" height="30" as="geometry" />
        </mxCell>
        <mxCell id="sCFNNogYVKCEK7yUjIK_-42" value="" style="editableCssRules=.*;html=1;shape=image;verticalLabelPosition=bottom;labelBackgroundColor=#ffffff;verticalAlign=top;aspect=fixed;imageAspect=0;image=data:image/svg+xml,PHN2ZyB4bWxucz0iaHR0cDovL3d3dy53My5vcmcvMjAwMC9zdmciIHhtbG5zOnY9Imh0dHBzOi8vdmVjdGEuaW8vbmFubyIgd2lkdGg9IjIwIiBoZWlnaHQ9IjE3LjUiIGZpbGwtcnVsZT0iZXZlbm9kZCIgdmlld0JveD0iMCAwIDIwIDE3LjUiPiYjeGE7CTxzdHlsZSB0eXBlPSJ0ZXh0L2NzcyI+JiN4YTsJLnN0MHtmaWxsOiM0Mjg1ZjQ7fSYjeGE7CS5zdDF7ZmlsbDojNjY5ZGY2O30mI3hhOwk8L3N0eWxlPiYjeGE7CTxwYXRoIGNsYXNzPSJzdDAiIGQ9Ik0xOC45MSAxMC42M0wyMCA4Ljc1IDE3LjgyIDVoLTMuMDdsLTEuMDYtMS44NkgxMi41VjEuODhoMS45NGwxLjA2IDEuODdoMS41OUwxNC45IDBoLTQuMjd2NWgxLjczbC43MyAxLjI1aC0yLjQ2djIuNWgyLjI2bDEuMDUtMS44N2gyLjgxbC43MiAxLjI1aC0yLjhMMTMuNjIgMTBoLTIuOTl2NC4zOGgzLjRsLS43MiAxLjI1aC0yLjY4djEuODdoNC4yN2wzLjI4LTUuNjJoLTIuMDlsLS43MyAxLjI1SDEyLjV2LTEuMjVoMi4xNGwuNzQtMS4yNXoiLz4mI3hhOwk8cGF0aCBjbGFzcz0ic3QxIiBkPSJNMS4wOSAxMC42M0wwIDguNzUgMi4xOCA1aDMuMDdsMS4wNi0xLjg2SDcuNVYxLjg4SDUuNTZMNC41IDMuNzVIMi45MUw1LjEgMGg0LjI4djVINy42NGwtLjczIDEuMjVoMi40N3YyLjVINy4xMUw2LjA2IDYuODhIMy4yNWwtLjcyIDEuMjVoMi44TDYuMzggMTBoM3Y0LjM4SDUuOTdsLjcyIDEuMjVoMi42OXYxLjg3SDUuMWwtMy4yOC01LjYyaDIuMDlsLjczIDEuMjVINy41di0xLjI1SDUuMzZsLS43NC0xLjI1eiIvPiYjeGE7PC9zdmc+;" vertex="1" parent="1">
          <mxGeometry x="1228.33" y="530" width="73.33" height="66" as="geometry" />
        </mxCell>
        <mxCell id="sCFNNogYVKCEK7yUjIK_-43" value="&lt;span style=&quot;font-size: 16px;&quot;&gt;Machine Learning&lt;/span&gt;" style="text;html=1;align=center;verticalAlign=middle;whiteSpace=wrap;rounded=0;" vertex="1" parent="1">
          <mxGeometry x="1195.6299999999999" y="618" width="138.75" height="30" as="geometry" />
        </mxCell>
        <mxCell id="sCFNNogYVKCEK7yUjIK_-44" value="&lt;div&gt;&lt;span style=&quot;font-size: 24px;&quot;&gt;High Level Architecture&lt;/span&gt;&lt;/div&gt;" style="rounded=0;whiteSpace=wrap;html=1;strokeColor=none;" vertex="1" parent="1">
          <mxGeometry x="555.01" y="20" width="280" height="40" as="geometry" />
        </mxCell>
      </root>
    </mxGraphModel>
  </diagram>
</mxfile>
